<?xml version="1.0" encoding="utf-8"?>
<!-- Generator: Adobe Illustrator 27.5.0, SVG Export Plug-In . SVG Version: 6.00 Build 0)  -->
<svg version="1.1" xmlns="http://www.w3.org/2000/svg" xmlns:xlink="http://www.w3.org/1999/xlink" x="0px" y="0px"
	 viewBox="0 0 3710 3710" style="enable-background:new 0 0 3710 3710;" xml:space="preserve">
<g id="Background">
	<g>
		<g>
			<rect style="fill:#FFFFFF;" width="3710" height="3710"/>
		</g>
	</g>
</g>
<g id="Illustration">
	<g>
		<path style="fill:#F4F7FA;" d="M3212.417,1643.318c-75.831-496.347-386.736-1106.144-1000.962-1169.96
			c0,0-466.35-56.724-926.069,29.247c-272.844,51.024-512.087,202.911-663.47,421.212
			c-151.385,218.3-201.952,484.487-140.583,738.264c39.859,164.83,66.794,335.423,59.402,504.796
			c-12.865,294.778-5.463,569.931,280.612,745.728c255.432,156.968,576.897,295.407,883.579,319.655
			c208.419,16.479,442.148-10.188,643.024-64.449C3371.661,2891.274,3288.247,2139.664,3212.417,1643.318z"/>
		<g>
			<g>
				<path style="fill:#B2BCCC;" d="M2640.83,1748.481c0,474.706-362.362,884.442-834.281,916.883
					c-501.907,34.502-932.81-366.15-932.81-896.919s430.902-941.157,932.81-917.996
					C2278.468,872.226,2640.83,1273.774,2640.83,1748.481z"/>
				<path style="fill:#D8DEE8;" d="M2688.448,1748.481c0,474.706-362.362,884.442-834.281,916.883
					c-501.907,34.502-932.81-366.15-932.81-896.919s430.902-941.157,932.81-917.996
					C2326.085,872.226,2688.448,1273.774,2688.448,1748.481z"/>
				<g style="opacity:0.3;">
					<path style="fill:#D8DEE8;" d="M2020.223,2361.002c-170.444-193.71-9.383-442.248-187.964-683.567
						c-165.712-223.93-398.954-144.673-578.628-380.733c-38.302-50.323-66.225-104.611-86.141-160.427
						c-152.245,164.752-246.134,386.947-246.134,632.17c0,530.769,430.902,931.421,932.81,896.919
						c173.76-11.945,332.227-74.731,462.819-171.918C2170.788,2480.045,2078.85,2427.632,2020.223,2361.002z"/>
				</g>
				<linearGradient id="SVGID_1_" gradientUnits="userSpaceOnUse" x1="2021.2964" y1="1040.1703" x2="1354.9993" y2="3346.5864">
					<stop  offset="0" style="stop-color:#FFFFFF"/>
					<stop  offset="0.9964" style="stop-color:#EBEFF2"/>
				</linearGradient>
				<path style="fill:url(#SVGID_1_);" d="M2609.006,1749.378c0,429.504-328.84,798.402-754.84,825.24
					c-450.286,28.367-834.6-332.395-834.6-807.283s384.314-844.334,834.6-826.141
					C2280.166,958.406,2609.006,1319.874,2609.006,1749.378z"/>
				<path style="opacity:0.3;fill:#D8DEE8;" d="M1854.166,2574.618c124.894-7.868,241.179-44.973,343.019-103.828
					c-79.728-24.305-136.367-63.65-176.962-109.787c-170.444-193.71-9.383-442.248-187.964-683.567
					c-165.712-223.93-398.954-144.673-578.628-380.733c-15.827-20.795-29.86-42.281-42.316-64.271
					c-119.429,144.283-191.749,330.85-191.749,534.904C1019.566,2242.222,1403.88,2602.985,1854.166,2574.618z"/>
				<path style="fill:#D8DEE8;" d="M2447.565,1751.202c0,337.644-260.067,624.754-593.399,641.924
					c-348.018,17.926-641.601-262.9-641.601-627.972s293.583-652.531,641.601-642.469
					C2187.497,1132.323,2447.565,1413.558,2447.565,1751.202z"/>
				<path style="opacity:0.3;fill:#D8DEE8;" d="M1832.259,1677.435c-141.367-191.031-331.679-161.476-496.241-295.106
					c-77.493,107.059-123.453,239.485-123.453,382.825c0,365.071,293.583,645.898,641.601,627.972
					c57.961-2.985,113.642-14.1,166.057-32.124h0C1849.779,2167.292,2010.84,1918.754,1832.259,1677.435z"/>
				
					<linearGradient id="SVGID_00000042733885613341621280000015740163202516749488_" gradientUnits="userSpaceOnUse" x1="1956.8918" y1="1359.4264" x2="1587.0892" y2="2639.5142">
					<stop  offset="0" style="stop-color:#FFFFFF"/>
					<stop  offset="0.9964" style="stop-color:#EBEFF2"/>
				</linearGradient>
				<path style="fill:url(#SVGID_00000042733885613341621280000015740163202516749488_);" d="M2282.621,1753.066
					c0,243.791-188.917,448.983-428.455,458.569c-247.029,9.886-453.029-190.837-453.029-448.61s206-463.151,453.029-458.847
					C2093.704,1308.351,2282.621,1509.275,2282.621,1753.066z"/>
				<path style="opacity:0.3;fill:#D8DEE8;" d="M1501.323,1473.764c-62.568,79.035-100.186,179.701-100.186,289.26
					c0,257.774,206,458.497,453.029,448.611c30.513-1.221,60.185-5.612,88.732-12.824
					c-31.618-161.734,21.534-342.769-110.638-521.376C1736.577,1548.138,1618.633,1519.891,1501.323,1473.764z"/>
				<path style="fill:#D8DEE8;" d="M2114.059,1754.97c0,147.879-115.293,271.048-259.893,275.173
					c-147.296,4.203-268.735-116.291-268.735-269.201c0-152.91,121.438-276.147,268.735-275.273
					C1998.766,1486.527,2114.059,1607.091,2114.059,1754.97z"/>
				<path style="opacity:0.3;fill:#D8DEE8;" d="M1929.138,2016.813c-3.532-110.304-12.255-225.025-96.879-339.379
					c-45.575-61.585-96.165-100.22-149.32-128.789c-59.451,50.553-97.508,126.93-97.508,212.296
					c0,152.91,121.438,273.404,268.735,269.201C1880.298,2029.397,1905.453,2024.752,1929.138,2016.813z"/>
			</g>
			<g>
				<path style="fill:#B2BCCC;" d="M2793.194,1342.212c0.711-0.626-146.868,47.717-146.868,47.717l46.42-89.714
					c15.601-30.152,152.557-66.217,186.354-72.139l3.409,8.846L2793.194,1342.212z"/>
				<path style="fill:#B2BCCC;" d="M2173.423,1650.689l-320.58,110.565c-2.655,0.916-4.403-3.621-1.856-4.816l307.589-144.274
					L2173.423,1650.689z"/>
				<path style="fill:#B2BCCC;" d="M2822.55,1406.62c0.937-0.042-143.827,67.376-143.827,67.376l93.676,32.909
					c31.483,11.06,155.463-58.677,184.073-78.059l-3.409-8.846L2822.55,1406.62z"/>
				<path style="fill:#A4ADBA;" d="M2805.931,1413.269c0.933-0.041-143.175,67.094-143.175,67.094l93.311,32.897
					c31.359,11.056,66.016,6.629,93.74-12.153l106.667-72.261L2805.931,1413.269z"/>
				<path style="fill:#A4ADBA;" d="M2779.631,1345.025c0.708-0.625-149.201,51.457-149.201,51.457l46.161-89.449
					c15.514-30.062,43.755-51.138,76.504-56.877l126.005-22.081L2779.631,1345.025z"/>
				<path style="fill:#A4ADBA;" d="M2308.406,1645.441l-85.811,33.915c-30.151,11.917-64.82-5.549-77.679-38.915l0,0
					c-12.858-33.366,0.794-70.435,30.735-82.897l85.213-35.467L2308.406,1645.441z"/>
				<g style="opacity:0.3;">
					<path style="fill:#B2BCCC;" d="M2229.204,1628.155c-32.945,1.146-62.908-8.208-88.655-21.434
						c-1.26,10.947,0.058,22.541,4.367,33.721l0,0c12.858,33.365,47.527,50.832,77.678,38.915l85.811-33.915l-13.966-36.239
						C2275.09,1620.182,2255.004,1627.257,2229.204,1628.155z"/>
				</g>
				<path style="fill:#B2BCCC;" d="M2835.611,1399.836l-527.205,245.605c-33.588,12.944-81.129-110.418-47.541-123.362
					l550.211-185.909L2835.611,1399.836z"/>
				<g style="opacity:0.3;">
					<path style="fill:#B2BCCC;" d="M2665.422,1453.706c-108.037,37.088-133.622,16.64-225.696,61.643
						c-84.845,41.47-118.974,86.125-167.5,104.386c11.072,18.162,24.471,30.218,36.179,25.707l527.205-245.605l-9.538-24.75
						C2764.583,1414.83,2709.345,1438.628,2665.422,1453.706z"/>
				</g>
				<path style="fill:#B2BCCC;" d="M2833.857,1364.021c6.836,17.739,7.701,33.992,1.94,36.298
					c-5.752,2.302-15.935-10.174-22.752-27.863c-6.817-17.689-7.702-33.933-1.969-36.285
					C2816.817,1333.814,2827.02,1346.282,2833.857,1364.021z"/>
			</g>
		</g>
		<g>
			
				<linearGradient id="SVGID_00000034801231547324970140000013743672133379101574_" gradientUnits="userSpaceOnUse" x1="1552.7445" y1="2524.0659" x2="1355.9194" y2="3202.4084">
				<stop  offset="0.0036" style="stop-color:#E38DDD"/>
				<stop  offset="1" style="stop-color:#9571F6"/>
			</linearGradient>
			<polygon style="fill:url(#SVGID_00000034801231547324970140000013743672133379101574_);" points="725.461,2447.26 
				1515.29,2412.92 2425.311,2444.807 1527.555,2641.038 			"/>
			<g>
				
					<linearGradient id="SVGID_00000071559825617410092320000002532886087832670107_" gradientUnits="userSpaceOnUse" x1="913.6803" y1="3200.9058" x2="1052.2463" y2="2885.7354">
					<stop  offset="0" style="stop-color:#AA80F9"/>
					<stop  offset="0.9964" style="stop-color:#6165D7"/>
				</linearGradient>
				<path style="fill:url(#SVGID_00000071559825617410092320000002532886087832670107_);" d="M1361.839,3208.365l-639.776-172.188
					c-64.432-17.341-114.492-81.181-114.492-143.09v-0.68c0-61.909,50.06-103.446,114.492-92.081l686.191,112.291L1361.839,3208.365
					z"/>
				<g>
					
						<linearGradient id="SVGID_00000126321534044048645480000001845697454520035766_" gradientUnits="userSpaceOnUse" x1="1274.6862" y1="3020.1238" x2="2426.4075" y2="3020.1238">
						<stop  offset="0" style="stop-color:#F4F7FA"/>
						<stop  offset="0.9964" style="stop-color:#D8DEE8"/>
					</linearGradient>
					<path style="fill:url(#SVGID_00000126321534044048645480000001845697454520035766_);" d="M2426.407,3079.055l-1033.743,115.444
						c-64.747,7.23-117.979-37.921-117.979-100.951v-42.759c0-63.03,53.231-118.363,117.979-123.517l1033.743-82.284
						C2380.664,2930.146,2370.11,3009.814,2426.407,3079.055z"/>
					
						<linearGradient id="SVGID_00000130621024577614093450000012391232157930134925_" gradientUnits="userSpaceOnUse" x1="1246.8927" y1="3020.6687" x2="2446.6621" y2="3020.6687">
						<stop  offset="0" style="stop-color:#AA80F9"/>
						<stop  offset="0.9964" style="stop-color:#6165D7"/>
					</linearGradient>
					<path style="fill:url(#SVGID_00000130621024577614093450000012391232157930134925_);" d="M2435.404,3090.519l-1034.077,117.25
						c-84.452,9.575-154.434-49.576-154.434-132.036v-0.906c0-82.46,69.982-155.004,154.434-161.591l1034.077-80.652
						c6.222-0.485,11.258,4.696,11.258,11.571c0,6.875-5.036,12.859-11.258,13.365l-1034.077,84.191
						c-67.94,5.531-124.037,63.98-124.037,130.209v0.903c0,66.229,56.097,113.943,124.037,106.472l1034.077-113.712
						c6.222-0.684,11.258,4.336,11.258,11.211C2446.662,3083.668,2441.626,3089.813,2435.404,3090.519z"/>
				</g>
			</g>
			<g>
				
					<linearGradient id="SVGID_00000174563166191675140490000007540202474086351257_" gradientUnits="userSpaceOnUse" x1="1100.207" y1="2392.7598" x2="903.3823" y2="3071.1008">
					<stop  offset="0.0036" style="stop-color:#E38DDD"/>
					<stop  offset="1" style="stop-color:#9571F6"/>
				</linearGradient>
				<path style="fill:url(#SVGID_00000174563166191675140490000007540202474086351257_);" d="M1388.716,2913.311l-666.654-112.985
					c-64.432-11.365-114.492-95.822-114.492-188.779v-1.021c0-92.958,50.06-166.724,114.492-164.331l707.188,26.269
					L1388.716,2913.311z"/>
				<g>
					
						<linearGradient id="SVGID_00000106856055254451892620000000452970051208553604_" gradientUnits="userSpaceOnUse" x1="1274.6862" y1="2675.8708" x2="2426.4075" y2="2675.8708">
						<stop  offset="0" style="stop-color:#F4F7FA"/>
						<stop  offset="0.9964" style="stop-color:#D8DEE8"/>
					</linearGradient>
					<path style="fill:url(#SVGID_00000106856055254451892620000000452970051208553604_);" d="M2426.407,2814.541l-975.807,73.601
						c-96.239,7.259-175.914-63.453-175.914-158.093v-64.203c0-94.64,79.676-173.533,175.914-176.157l975.807-26.602
						C2380.516,2590.69,2370.259,2710.177,2426.407,2814.541z"/>
					
						<linearGradient id="SVGID_00000031888341027407022710000016546975170442391217_" gradientUnits="userSpaceOnUse" x1="2198.9485" y1="3590.5256" x2="2016.1832" y2="3079.7197">
						<stop  offset="0.0036" style="stop-color:#E38DDD"/>
						<stop  offset="1" style="stop-color:#9571F6"/>
					</linearGradient>
					<path style="fill:url(#SVGID_00000031888341027407022710000016546975170442391217_);" d="M2435.404,2832.583l-1034.077,80.652
						c-84.452,6.587-154.434-88.686-154.434-212.5v-1.361c0-123.815,69.982-226.285,154.434-228.383l1034.077-25.7
						c6.222-0.155,11.258,8.089,11.258,18.412s-5.036,18.843-11.258,19.03l-1034.077,31.013
						c-67.94,2.037-124.037,84.623-124.037,184.068v1.356c0,99.444,56.097,176.261,124.037,171.311l1034.077-75.34
						c6.222-0.453,11.258,7.549,11.258,17.872C2446.662,2823.336,2441.626,2832.098,2435.404,2832.583z"/>
				</g>
			</g>
			<path style="opacity:0.5;fill:#FFFFFF;" d="M1181.989,2820.15l-142.501-24.903c-33.275-90.823-30.774-174.255,0-273.972
				l142.501,10.13C1152.781,2636.338,1157.203,2731.385,1181.989,2820.15z"/>
		</g>
		<g>
			
				<linearGradient id="SVGID_00000114057841064843590430000013294788838574827669_" gradientUnits="userSpaceOnUse" x1="833.9177" y1="1301.5234" x2="1256.3964" y2="1546.1166">
				<stop  offset="0" style="stop-color:#444B8C"/>
				<stop  offset="0.9964" style="stop-color:#26264F"/>
			</linearGradient>
			<path style="fill:url(#SVGID_00000114057841064843590430000013294788838574827669_);" d="M1327.667,1398.169
				c0.429,194.107-102.747,352.514-286.493,357.724c-2.84,0.08-49.734-0.008-52.591-0.001
				c-187.706,0.457-340.225-158.96-340.66-356.068c-0.435-197.108,151.378-357.266,339.084-357.723
				c4.389-0.011,45.592,0.396,49.941,0.559C1218.596,1049.45,1327.242,1205.67,1327.667,1398.169z"/>
			
				<linearGradient id="SVGID_00000172406771168477332320000009959249652352075194_" gradientUnits="userSpaceOnUse" x1="1191.7649" y1="1191.2141" x2="511.9635" y2="2212.5132">
				<stop  offset="0.0036" style="stop-color:#E38DDD"/>
				<stop  offset="1" style="stop-color:#9571F6"/>
			</linearGradient>
			
				<ellipse style="fill:url(#SVGID_00000172406771168477332320000009959249652352075194_);" cx="1051.336" cy="1402.187" rx="339.873" ry="356.896"/>
			
				<linearGradient id="SVGID_00000007386249085640465240000009152276843536536725_" gradientUnits="userSpaceOnUse" x1="1224.4022" y1="1160.1647" x2="1020.1733" y2="1445.7665">
				<stop  offset="0.0036" style="stop-color:#E38DDD"/>
				<stop  offset="1" style="stop-color:#9571F6"/>
			</linearGradient>
			
				<ellipse style="fill:url(#SVGID_00000007386249085640465240000009152276843536536725_);" cx="1051.336" cy="1402.187" rx="331.31" ry="347.905"/>
			
				<linearGradient id="SVGID_00000169543826098878647760000007402482015582172843_" gradientUnits="userSpaceOnUse" x1="838.8021" y1="833.5764" x2="1146.5748" y2="1656.9886">
				<stop  offset="0.0036" style="stop-color:#E38DDD"/>
				<stop  offset="1" style="stop-color:#9571F6"/>
			</linearGradient>
			
				<ellipse style="fill:url(#SVGID_00000169543826098878647760000007402482015582172843_);" cx="1051.336" cy="1402.187" rx="321.308" ry="337.402"/>
			
				<linearGradient id="SVGID_00000062159080343584383810000009035335618648951231_" gradientUnits="userSpaceOnUse" x1="653.3881" y1="2456.2383" x2="1266.2589" y2="804.4058">
				<stop  offset="0.0036" style="stop-color:#EBEFF2"/>
				<stop  offset="1" style="stop-color:#FFFFFF"/>
			</linearGradient>
			
				<ellipse style="fill:url(#SVGID_00000062159080343584383810000009035335618648951231_);" cx="1044.467" cy="1402.187" rx="314.44" ry="330.189"/>
			<g>
				
					<linearGradient id="SVGID_00000177444769884725197880000009094284359492335274_" gradientUnits="userSpaceOnUse" x1="1271.3795" y1="1156.2284" x2="906.8141" y2="1889.5027">
					<stop  offset="0.0036" style="stop-color:#E38DDD"/>
					<stop  offset="1" style="stop-color:#9571F6"/>
				</linearGradient>
				<path style="fill:url(#SVGID_00000177444769884725197880000009094284359492335274_);" d="M1077.666,1392.731l239.522,92.881
					c7.798-26.24,12.003-54.146,12.003-83.084c0-149.003-111.408-270.68-251.525-278.193V1392.731z"/>
			</g>
			<g style="opacity:0.54;">
				<path style="fill:#D8DEE8;" d="M965.517,1394.696c-24.867-80.534,65.038-138.653,50.863-232.522
					c-6.255-41.421-30.595-75.359-60.528-102.586c-141.513,43.417-244.746,180.844-244.387,343.427
					c0.435,197.108,152.954,356.525,340.66,356.068c46.024-0.112,89.881-9.846,129.874-27.351
					c-5.795-113.912-40.737-178.258-77.896-217.025C1046.833,1454.959,984.478,1456.105,965.517,1394.696z"/>
			</g>
			
				<linearGradient id="SVGID_00000170977241772676904760000004193357919869481377_" gradientUnits="userSpaceOnUse" x1="870.7775" y1="1085.2118" x2="1262.3423" y2="1815.1649">
				<stop  offset="0" style="stop-color:#FF9085"/>
				<stop  offset="1" style="stop-color:#FB6FBB"/>
			</linearGradient>
			
				<ellipse style="fill:url(#SVGID_00000170977241772676904760000004193357919869481377_);" cx="1043.583" cy="1407.356" rx="19.992" ry="20.994"/>
			
				<linearGradient id="SVGID_00000124144411899308795840000017348996378364753309_" gradientUnits="userSpaceOnUse" x1="905.4667" y1="1066.6034" x2="1297.0317" y2="1796.557">
				<stop  offset="0" style="stop-color:#FF9085"/>
				<stop  offset="1" style="stop-color:#FB6FBB"/>
			</linearGradient>
			<path style="fill:url(#SVGID_00000124144411899308795840000017348996378364753309_);" d="M1043.583,1240.054
				c-6.978,0-12.634,5.94-12.634,13.267v141.517c0,7.327,5.656,13.267,12.634,13.267c6.978,0,12.634-5.94,12.634-13.267v-141.517
				C1056.218,1245.994,1050.561,1240.054,1043.583,1240.054z"/>
			
				<linearGradient id="SVGID_00000088113119724323642320000000900262329070140820_" gradientUnits="userSpaceOnUse" x1="497.6265" y1="571.1686" x2="1392.0615" y2="2238.5701">
				<stop  offset="0" style="stop-color:#FF9085"/>
				<stop  offset="1" style="stop-color:#FB6FBB"/>
			</linearGradient>
			<path style="fill:url(#SVGID_00000088113119724323642320000000900262329070140820_);" d="M1046.848,1405.374l-226.362-66.549
				c-3.99-1.218-8.374,0.994-9.792,4.941c-1.418,3.947,0.667,8.134,4.657,9.352l226.362,66.549c3.99,1.218,8.373-0.994,9.792-4.941
				C1052.923,1410.78,1050.838,1406.593,1046.848,1405.374z"/>
		</g>
		<g>
			<g>
				
					<linearGradient id="SVGID_00000139289579504077719710000015572056303889416120_" gradientUnits="userSpaceOnUse" x1="1466.5725" y1="913.3234" x2="2160.0007" y2="913.3234">
					<stop  offset="0" style="stop-color:#311944"/>
					<stop  offset="1" style="stop-color:#893976"/>
				</linearGradient>
				<path style="fill:url(#SVGID_00000139289579504077719710000015572056303889416120_);" d="M2160.001,685.372
					c0-22.67-19.387-41.123-43.244-41.227l-603.489-2.6c-25.492-0.111-46.695,18.882-46.695,42.397v459.677
					c0,23.515,21.133,42.076,46.626,41.467l13.797-0.367l0.65-1.02l588.662-20.786c23.857-0.577,43.693-11.707,43.693-34.378
					V685.372z M1628.711,741.898c-22.117,0.019-40.085-16.602-40.085-37.123c0-20.522,17.968-37.104,40.085-37.038
					c22.066,0.066,39.919,16.687,39.919,37.123C1668.63,725.296,1650.777,741.878,1628.711,741.898z M1819.673,741.731
					c-21.678,0.019-39.289-16.436-39.289-36.752s17.612-36.734,39.289-36.669c21.628,0.065,39.127,16.52,39.127,36.752
					S1841.302,741.712,1819.673,741.731z M2006.862,741.567c-21.251,0.019-38.516-16.273-38.516-36.389
					c0-20.115,17.265-36.37,38.516-36.307c21.203,0.064,38.359,16.356,38.359,36.388
					C2045.22,725.293,2028.065,741.549,2006.862,741.567z"/>
				
					<linearGradient id="SVGID_00000001635511866852979800000016697384637029507744_" gradientUnits="userSpaceOnUse" x1="1481.903" y1="715.4471" x2="2172.9766" y2="715.4471">
					<stop  offset="0" style="stop-color:#FF9085"/>
					<stop  offset="1" style="stop-color:#FB6FBB"/>
				</linearGradient>
				<path style="fill:url(#SVGID_00000001635511866852979800000016697384637029507744_);" d="M2172.977,767.018v-82.112
					c0-22.649-18.856-40.62-42.675-40.723l-602.065-2.6c-10.726-0.047-20.738,3.103-28.602,8.777
					c-10.733,7.733-17.732,19.581-17.732,33.135v105.819L2172.977,767.018z M2020.414,668.912
					c21.169,0.064,38.312,16.336,38.312,36.372c0,20.015-17.143,36.25-38.312,36.269c-21.217,0.018-38.47-16.254-38.47-36.351
					C1981.944,685.084,1999.197,668.849,2020.414,668.912z M1833.498,668.352c21.591,0.065,39.078,16.499,39.078,36.734
					c0,20.214-17.486,36.611-39.078,36.63c-21.643,0.019-39.243-16.416-39.243-36.713
					C1794.255,684.683,1811.855,668.287,1833.498,668.352z M1642.814,667.779c22.03,0.066,39.87,16.666,39.87,37.105
					c0,20.417-17.84,36.979-39.87,36.998c-22.08,0.019-40.036-16.581-40.036-37.083
					C1602.777,684.275,1620.734,667.713,1642.814,667.779z"/>
				<path style="fill:#FFFFFF;" d="M1481.903,765.273v377.948c0,23.493,19.943,42.101,45.395,41.493l602.654-14.374
					c23.826-0.569,43.025-19.371,43.025-42.03V763.781L1481.903,765.273z"/>
				<g>
					<path style="fill:#BFC8D6;" d="M1925.546,827.452c0-5.335-4.049-9.629-9.719-9.601l-59.91,0.33
						c-5.707,0.028-12.813,4.44-12.813,9.795v54.061c0,5.356,7.381,9.622,13.088,9.572l58.251-0.529
						c5.669-0.05,11.103-4.439,11.103-9.774V827.452z"/>
					<path style="fill:#BFC8D6;" d="M2030.983,826.873c0-5.306-4.704-9.569-10.312-9.542l-56.518,0.305
						c-5.645,0.028-9.941,4.394-9.941,9.721v53.771c0,5.327,4.22,9.589,9.865,9.54l56.771-0.518
						c5.608-0.049,10.135-4.409,10.135-9.715V826.873z"/>
					<path style="fill:#BFC8D6;" d="M2137.326,826.306c0-5.276-4.921-9.519-10.466-9.491l-56.507,0.259
						c-5.581,0.027-10.457,4.326-10.457,9.623v53.466c0,5.297,4.665,9.576,10.246,9.527l56.646-0.49
						c5.545-0.049,10.538-4.361,10.538-9.637V826.306z"/>
					<path style="fill:#BFC8D6;" d="M1925.546,925.954c0-5.335-4.049-9.607-9.719-9.55l-59.91,0.617
						c-5.707,0.058-12.813,4.481-12.813,9.837v54.061c0,5.356,7.381,9.609,13.088,9.529l58.251-0.821
						c5.669-0.08,11.103-4.484,11.103-9.82V925.954z"/>
					
						<linearGradient id="SVGID_00000177459315229969672330000016940319069749335455_" gradientUnits="userSpaceOnUse" x1="1954.2124" y1="952.1562" x2="2030.9832" y2="952.1562">
						<stop  offset="0" style="stop-color:#FF9085"/>
						<stop  offset="1" style="stop-color:#FB6FBB"/>
					</linearGradient>
					<path style="fill:url(#SVGID_00000177459315229969672330000016940319069749335455_);" d="M2030.983,924.839
						c0-5.306-4.704-9.552-10.312-9.495l-56.518,0.596c-5.645,0.057-9.941,4.441-9.941,9.768v53.771c0,5.327,4.22,9.568,9.865,9.489
						l56.771-0.808c5.608-0.079,10.135-4.455,10.135-9.761V924.839z"/>
					<path style="fill:#BFC8D6;" d="M2137.326,923.716c0-5.276-4.921-9.5-10.466-9.444l-56.507,0.547
						c-5.581,0.057-10.457,4.374-10.457,9.67v53.466c0,5.297,4.665,9.555,10.246,9.477l56.646-0.777
						c5.545-0.078,10.538-4.407,10.538-9.683V923.716z"/>
					<path style="fill:#BFC8D6;" d="M1602.151,929.476c0-5.426-5.166-9.799-11.033-9.74l-58.996,0.557
						c-5.907,0.06-10.269,4.481-10.269,9.93v55.012c0,5.45,4.152,9.835,10.06,9.752l59.525-0.797
						c5.867-0.082,10.713-4.512,10.713-9.938V929.476z"/>
					<path style="fill:#BFC8D6;" d="M1711.087,928.238c0-5.396-4.231-9.714-10.031-9.656l-59.579,0.604
						c-5.839,0.059-11.406,4.507-11.406,9.925v54.689c0,5.418,5.803,9.742,11.642,9.66l58.808-0.831
						c5.8-0.081,10.567-4.528,10.567-9.924V928.238z"/>
					<path style="fill:#BFC8D6;" d="M1817.848,927.213c0-5.365-4.358-9.715-10.093-9.657l-59.633,0.58
						c-5.773,0.059-11.999,4.464-11.999,9.852v54.38c0,5.387,6.37,9.678,12.144,9.597l58.641-0.773
						c5.735-0.08,10.94-4.453,10.94-9.819V927.213z"/>
					<path style="fill:#BFC8D6;" d="M1925.546,1024.456c0-5.335-4.049-9.586-9.719-9.499l-59.91,0.905
						c-5.707,0.088-12.813,4.522-12.813,9.878v54.061c0,5.356,7.381,9.596,13.088,9.486l58.251-1.113
						c5.669-0.109,11.103-4.53,11.103-9.865V1024.456z"/>
					<path style="fill:#BFC8D6;" d="M2030.983,1022.805c0-5.306-4.704-9.535-10.312-9.448l-56.518,0.887
						c-5.645,0.087-9.941,4.489-9.941,9.816v53.771c0,5.327,4.22,9.547,9.865,9.438l56.771-1.097
						c5.608-0.108,10.135-4.5,10.135-9.806V1022.805z"/>
					<path style="fill:#BFC8D6;" d="M1602.151,1029.667c0-5.427-5.166-9.771-11.033-9.681l-58.996,0.87
						c-5.907,0.091-10.269,4.539-10.269,9.989v55.012c0,5.45,4.152,9.809,10.06,9.695l59.525-1.112
						c5.867-0.113,10.713-4.571,10.713-9.997V1029.667z"/>
					<path style="fill:#BFC8D6;" d="M1711.087,1027.863c0-5.396-4.231-9.693-10.031-9.603l-59.579,0.907
						c-5.839,0.09-11.406,4.558-11.406,9.976v54.689c0,5.418,5.803,9.72,11.642,9.607l58.808-1.134
						c5.8-0.112,10.567-4.579,10.567-9.975V1027.863z"/>
					<path style="fill:#BFC8D6;" d="M1817.848,1026.277c0-5.365-4.358-9.691-10.093-9.603l-59.633,0.879
						c-5.773,0.089-11.999,4.514-11.999,9.901v54.38c0,5.387,6.37,9.658,12.144,9.547l58.641-1.074
						c5.735-0.11,10.94-4.505,10.94-9.87V1026.277z"/>
				</g>
				<path style="fill:#BFC8D6;" d="M1639.095,568.403c-37.112-0.304-67.737,30.373-70.695,73.369l31.252,0.136
					c2.553-25.753,19.587-45.422,39.443-45.289c21.495,0.144,39.618,23.791,39.618,51.773c0,27.981-18.122,51.54-39.618,51.511
					c-11.179-0.015-21.461-6.458-28.777-16.549c-4.238,5.85-11.54,19.216-4.627,35.233c9.97,6.051,21.345,9.483,33.404,9.481
					c38.898-0.006,70.427-35.63,70.427-79.549C1709.522,604.599,1677.993,568.721,1639.095,568.403z"/>
				<path style="fill:#BFC8D6;" d="M1829.521,569.867c-36.39-0.298-66.417,30.08-69.317,72.655l30.643,0.133
					c2.503-25.501,19.205-44.979,38.675-44.848c21.077,0.142,38.848,23.556,38.848,51.266c0,27.708-17.771,51.037-38.848,51.01
					c-10.962-0.015-21.043-6.395-28.217-16.386c-4.156,5.793-11.315,19.029-4.537,34.889c9.776,5.991,20.929,9.39,32.754,9.388
					c38.142-0.006,69.059-35.283,69.059-78.774C1898.58,605.706,1867.663,570.18,1829.521,569.867z"/>
				<path style="fill:#BFC8D6;" d="M2016.84,571.499c-35.659-0.292-65.083,29.781-67.925,71.926l30.026,0.13
					c2.453-25.244,18.82-44.526,37.898-44.398c20.655,0.139,38.07,23.317,38.07,50.748c0,27.43-17.415,50.524-38.07,50.497
					c-10.742-0.014-20.621-6.33-27.651-16.221c-4.072,5.734-11.088,18.837-4.446,34.536c9.579,5.931,20.509,9.295,32.097,9.293
					c37.378-0.006,67.677-34.929,67.677-77.983C2084.517,606.973,2054.218,571.806,2016.84,571.499z"/>
				<path style="opacity:0.2;fill:#BFC8D6;" d="M2172.977,1113.404v14.916c0,22.649-18.856,41.464-42.675,42.033l-602.657,14.357
					c-25.442,0.608-45.742-17.995-45.742-41.478V683.494c0-13.554,6.822-25.628,17.555-33.361
					c23.356,7.348,53.5,29.226,68.968,91.074c27.322,109.184,50.883,155.562,157.02,150.272
					c68.327-3.407,120.981-1.81,153.913,26.631c17.716,15.276,29.784,38.37,35.514,72.665c3.354,20.075,18.378,32.594,39.859,41.555
					c21.068,8.819,48.502,14.213,77.11,20.063C2084.54,1063.138,2143.8,1075.399,2172.977,1113.404z"/>
			</g>
			<g>
				<path style="fill:#FFFFFF;" d="M1981.218,974.715c-0.574,0.056-1.151-0.058-1.647-0.359l-13.593-8.263
					c-1.261-0.767-1.543-2.453-0.629-3.766c0.915-1.314,2.677-1.755,3.937-0.988l11.552,7.032l32.997-38.332
					c1.037-1.205,2.799-1.445,3.933-0.535c1.134,0.909,1.213,2.624,0.176,3.829l-34.652,40.291
					C1982.741,974.263,1981.982,974.64,1981.218,974.715z"/>
			</g>
		</g>
		<g>
			
				<linearGradient id="SVGID_00000116236779247641899710000015869988957842693526_" gradientUnits="userSpaceOnUse" x1="3622.7915" y1="1508.2551" x2="3671.3975" y2="1656.6091" gradientTransform="matrix(-1 0 0 1 6025.8203 0)">
				<stop  offset="0" style="stop-color:#FFC444"/>
				<stop  offset="0.9964" style="stop-color:#F36F56"/>
			</linearGradient>
			<path style="fill:url(#SVGID_00000116236779247641899710000015869988957842693526_);" d="M2372.404,1607.753l10.97-20.641
				c0,0,10.092-2.081,14.668-9.293c4.576-7.213,4.576-7.213,4.576-7.213s2.289-7.576-6.018-15.798
				c-1.877-1.858-2.848-4.452-2.469-7.065c1.14-7.849,3.455-23.908,3.911-28.016c0.303-2.717-0.806-5.957-2.004-8.539
				c-0.817-1.758-3.361-1.578-3.869,0.293l-8.796,32.362c0,0-7.047-1.777-9.468,4.149c0,0-6.092,3.635-7.004,9.969
				c-0.913,6.335,0.011,21.646,0.011,21.646l-9.654,21.777L2372.404,1607.753z"/>
			
				<linearGradient id="SVGID_00000157288447547582321030000017975099474346529676_" gradientUnits="userSpaceOnUse" x1="3236.3496" y1="2635.4812" x2="3622.8052" y2="1742.5333" gradientTransform="matrix(-1 0 0 1 6025.8203 0)">
				<stop  offset="0" style="stop-color:#FF9085"/>
				<stop  offset="1" style="stop-color:#FB6FBB"/>
			</linearGradient>
			<path style="fill:url(#SVGID_00000157288447547582321030000017975099474346529676_);" d="M2386.829,1604.326
				c-6.018,13.963-39.579,95.28-0.851,170.764c43.187,84.175,159.397,128.215,275.672,90.234
				c0.911,15.044,10.474,205.399-83.011,250.844c-100.385,48.799-289.357-84.039-320.211-250.844
				c-26.4-142.728,75.408-258.279,91.9-276.43C2362.494,1594.038,2374.662,1599.182,2386.829,1604.326z"/>
			
				<linearGradient id="SVGID_00000160172287066661816380000008105875874741307062_" gradientUnits="userSpaceOnUse" x1="-585.6254" y1="3357.3308" x2="-508.3655" y2="3357.3308" gradientTransform="matrix(0.996 0.0897 -0.0897 0.996 3569.2732 -160.4537)">
				<stop  offset="0" style="stop-color:#444B8C"/>
				<stop  offset="0.9964" style="stop-color:#26264F"/>
			</linearGradient>
			<path style="fill:url(#SVGID_00000160172287066661816380000008105875874741307062_);" d="M2757.075,3119.487
				c4.008,3.685,4.262,12.293,4.427,17.919c0.075,2.513,0.112,3.771-0.221,4.637c-2.43,6.316-14.961,6.231-34.668,7.038
				c-31.144,1.276-40.502,3.15-42.644-1.603c-2.007-4.455,3.918-11.188,4.583-11.929c3.581-3.986,7.756-5.261,15.806-7.377
				c14.895-3.916,24.922-5.946,27.957-6.561C2751.273,3117.768,2754.443,3117.068,2757.075,3119.487z"/>
			
				<linearGradient id="SVGID_00000163066359540854503120000009394035368026944133_" gradientUnits="userSpaceOnUse" x1="-1031.4709" y1="3274.1677" x2="-997.5743" y2="3204.0095" gradientTransform="matrix(0.9976 0.0694 -0.0694 0.9976 3985.1992 -60.6691)">
				<stop  offset="0" style="stop-color:#FFC444"/>
				<stop  offset="0.9964" style="stop-color:#F36F56"/>
			</linearGradient>
			<path style="fill:url(#SVGID_00000163066359540854503120000009394035368026944133_);" d="M2735.232,3088.431l-1.214,35.45
				c0.97,1.658,11.731,6.208,19.827,1.38l6.11-35.109L2735.232,3088.431z"/>
			
				<linearGradient id="SVGID_00000132083409867070237830000002704982667970692767_" gradientUnits="userSpaceOnUse" x1="-891.579" y1="3601.3958" x2="-809.4958" y2="3601.3958" gradientTransform="matrix(0.977 0.2133 -0.2133 0.977 4057.7676 -210.6557)">
				<stop  offset="0" style="stop-color:#444B8C"/>
				<stop  offset="0.9964" style="stop-color:#26264F"/>
			</linearGradient>
			<path style="fill:url(#SVGID_00000132083409867070237830000002704982667970692767_);" d="M2494.738,3114.586
				c5.354,5.315,7.056,15.535,2.929,20.836c-4.056,5.211-10.755,1.823-29.157,3.357c-19.711,1.645-24.617,6.583-38.232,3.598
				c-5.5-1.208-15.268-4.332-15.293-8.212c-0.018-2.729,4.781-4.394,20.768-10.717c22.693-8.974,22.569-9.392,27.432-10.467
				C2475.4,3110.281,2487.665,3107.57,2494.738,3114.586z"/>
			
				<linearGradient id="SVGID_00000107584087394398501250000012775769034298820746_" gradientUnits="userSpaceOnUse" x1="-1093.1223" y1="3451.8362" x2="-1058.5081" y2="3380.1926" gradientTransform="matrix(0.9894 0.1453 -0.1453 0.9894 4051.2397 -128.6684)">
				<stop  offset="0" style="stop-color:#FFC444"/>
				<stop  offset="0.9964" style="stop-color:#F36F56"/>
			</linearGradient>
			<path style="fill:url(#SVGID_00000107584087394398501250000012775769034298820746_);" d="M2480.368,3083.06l-8.144,33.469
				c0.843,1.727,11.224,7.083,19.665,2.888l12.999-32.757L2480.368,3083.06z"/>
			
				<linearGradient id="SVGID_00000013877675761763027930000008307093175896838037_" gradientUnits="userSpaceOnUse" x1="3979.5803" y1="2793.9736" x2="3760.6484" y2="2300.4492" gradientTransform="matrix(-0.9986 0.0533 0.0533 0.9986 6263.3999 -19.3005)">
				<stop  offset="0" style="stop-color:#444B8C"/>
				<stop  offset="0.9964" style="stop-color:#3E4177"/>
			</linearGradient>
			<path style="fill:url(#SVGID_00000013877675761763027930000008307093175896838037_);" d="M2529.829,2356.927
				c4.493,110.779,3.585,235.655-7.32,371.854c-10.776,134.612-29.433,256.719-51.147,364.376
				c12.816,2.725,25.631,5.45,38.448,8.174c30.458-31.6,68.381-80.809,84.342-148.339c9.906-41.913,4.737-62.904,9.708-114.071
				c7.915-81.471,30.427-125.135,52.552-191.673c19.882-59.791,42.49-147.19,50.938-262.852
				C2648.175,2375.24,2589.002,2366.083,2529.829,2356.927z"/>
			
				<linearGradient id="SVGID_00000173847974428607013610000002205131489926206874_" gradientUnits="userSpaceOnUse" x1="3945.6292" y1="2809.0337" x2="3726.6978" y2="2315.5098" gradientTransform="matrix(-0.9986 0.0533 0.0533 0.9986 6263.3999 -19.3005)">
				<stop  offset="0" style="stop-color:#444B8C"/>
				<stop  offset="0.9964" style="stop-color:#3E4177"/>
			</linearGradient>
			<path style="opacity:0.3;fill:url(#SVGID_00000173847974428607013610000002205131489926206874_);" d="M2547.53,2874.646
				c14.112-55.886,41.298-70.664,42.267-123.417c0.685-37.314-12.724-40.365-11.835-76.08c1.35-54.174,33.085-82.579,49.03-116.656
				c16.838-35.989,23.29-93.797-22.091-189.951c34.149,5.285,68.299,10.57,102.449,15.853
				c-8.448,115.661-31.056,203.061-50.938,262.851c-22.125,66.539-44.637,110.203-52.552,191.673
				c-4.971,51.167,0.198,72.158-9.708,114.07c-15.961,67.531-53.884,116.74-84.342,148.341c-3.26-0.694-6.52-1.385-9.779-2.079
				c32.925-39.301,44.544-74.399,47.499-102.878C2552.338,2950.04,2533.302,2930.995,2547.53,2874.646z"/>
			
				<linearGradient id="SVGID_00000131328799522304800750000003380596506555758014_" gradientUnits="userSpaceOnUse" x1="3413.9363" y1="3161.7498" x2="3194.999" y2="2668.2131" gradientTransform="matrix(-0.9976 -0.0694 -0.0694 0.9976 6186.7134 92.9864)">
				<stop  offset="0" style="stop-color:#444B8C"/>
				<stop  offset="0.9964" style="stop-color:#3E4177"/>
			</linearGradient>
			<path style="fill:url(#SVGID_00000131328799522304800750000003380596506555758014_);" d="M2657.924,2350.002
				c15.252,140.382,29.271,283.459,41.884,429.158c9.467,109.333,17.897,217.328,25.36,323.947
				c12.99,0.904,25.982,1.809,38.973,2.712c11.23-23.884,25.898-60.265,34.816-106.368c10.831-55.994,5.887-88.638,8.872-146.23
				c3.351-64.595,12.454-79.114,25.575-161.074c26.632-166.336,39.949-249.505-2.287-298.542
				C2817.408,2377.685,2774.982,2338.179,2657.924,2350.002z"/>
			
				<linearGradient id="SVGID_00000052813210183325999480000006341437881218544556_" gradientUnits="userSpaceOnUse" x1="3296.4885" y1="2661.5093" x2="3682.9441" y2="1768.5615" gradientTransform="matrix(-1 0 0 1 6025.8203 0)">
				<stop  offset="0" style="stop-color:#FF9085"/>
				<stop  offset="1" style="stop-color:#FB6FBB"/>
			</linearGradient>
			<path style="opacity:0.3;fill:url(#SVGID_00000052813210183325999480000006341437881218544556_);" d="M2274.967,1710.74
				c0.622,17.182,4.127,31.368,8.82,43.002c16.99,42.115,57.42,72.839,49.029,120.037c-4.193,23.588-17.127,31.863-11.834,49.03
				c7.501,24.332,38.258,23.19,71.007,50.719c29.053,24.421,30.688,47.042,45.648,67.626
				c20.259,27.877,66.009,53.373,176.898,45.281c-9.849,12.507-21.665,22.816-35.896,29.735
				c-100.385,48.799-289.358-84.039-320.212-250.844C2247.798,1807.858,2257.966,1754.812,2274.967,1710.74z"/>
			
				<linearGradient id="SVGID_00000085953493064815857750000005095454015887790738_" gradientUnits="userSpaceOnUse" x1="3170.0854" y1="2441.3469" x2="3504.8337" y2="1667.8745" gradientTransform="matrix(-1 0 0 1 6025.8203 0)">
				<stop  offset="0" style="stop-color:#FF9085"/>
				<stop  offset="1" style="stop-color:#FB6FBB"/>
			</linearGradient>
			<path style="fill:url(#SVGID_00000085953493064815857750000005095454015887790738_);" d="M2994.366,1913.468
				c-70.175-23.792-177.249-50.157-308.202-44.761c-75.861,3.126-141.08,16.142-192.755,30.618
				c-6.987,39.076-13.974,78.154-20.96,117.229c-1.607,39.181-2.125,92.255,2.278,154.963c4.402,62.705,8.711,63.649,18.796,152.163
				c16.441,144.314,9.565,182.017,38.568,199.353c18.864,11.275,25.688-2.336,121.952-11.877c64.55-6.398,97.492-9.371,130.18,1.691
				c44.513,15.062,59.408,40.35,77.771,32.123c17.609-7.892,19.851-38.293,21.978-91.296c3.281-81.764,3.079-137.339,3.382-157.231
				c1.388-91.273,24.5-160.963,54.101-250.216C2959.967,1990.402,2979.467,1945.223,2994.366,1913.468z"/>
			<g>
				
					<linearGradient id="SVGID_00000047771932054483888480000005557980937421051316_" gradientUnits="userSpaceOnUse" x1="3741.3689" y1="520.2767" x2="3749.9866" y2="290.7363" gradientTransform="matrix(-0.8944 0.4471 0.4471 0.8944 5854.793 -182.9961)">
					<stop  offset="0" style="stop-color:#FFC444"/>
					<stop  offset="0.9964" style="stop-color:#F36F56"/>
				</linearGradient>
				<path style="fill:url(#SVGID_00000047771932054483888480000005557980937421051316_);" d="M2694.835,1778.287
					c1.032,22.948,4.563,41.003,7.649,53.332c3.535,14.126,5.73,17.707,8.44,20.563c4.079,4.3,10.099,7.767,43.404,14.163
					c18.123,3.479,20.418,3.236,20.908,4.989c2.388,8.557-44.809,40.673-95.579,36.251c-31.072-2.705-60.071-18.802-58.842-28.133
					c1.237-9.391,32.308-6.047,40.592-23.36c5.761-12.043-2.285-28.274-11.483-41.581
					C2657.302,1798.714,2687.459,1794.081,2694.835,1778.287z"/>
				<g>
					
						<linearGradient id="SVGID_00000142152621516325335290000011955754945933253513_" gradientUnits="userSpaceOnUse" x1="-1586.1205" y1="1564.0947" x2="-1644.5466" y2="1415.703" gradientTransform="matrix(0.9988 -0.0496 0.0496 0.9988 4236.2363 252.4768)">
						<stop  offset="0" style="stop-color:#311944"/>
						<stop  offset="1" style="stop-color:#6B3976"/>
					</linearGradient>
					<path style="fill:url(#SVGID_00000142152621516325335290000011955754945933253513_);" d="M2638.08,1790.412
						c-7.795-9.279-9.145-26.134-1.328-37.251c6.727-9.567,18.013-11.482,24.77-12.631c19.581-3.327,44.879,3.57,54.495,21.242
						c5.696,10.472-4.194,33.392-5.715,37.499c-1.724,4.644-5.203,6.391-8.316,9.999c-4.314,5.004-11.062,12.953-22.059,26.234
						c-1.106-3.687-2.733-8.236-5.191-13.13c-0.946-1.885-4.736-9.237-10.196-15.21
						C2653.604,1795.189,2645.469,1799.206,2638.08,1790.412z"/>
					
						<linearGradient id="SVGID_00000155863690913641614260000013090710754523208083_" gradientUnits="userSpaceOnUse" x1="3053.1394" y1="1596.493" x2="3050.4524" y2="1812.979" gradientTransform="matrix(-0.9999 -0.0116 -0.0116 0.9999 5744.4673 228.061)">
						<stop  offset="0" style="stop-color:#FFC444"/>
						<stop  offset="0.9964" style="stop-color:#F36F56"/>
					</linearGradient>
					<path style="fill:url(#SVGID_00000155863690913641614260000013090710754523208083_);" d="M2696.01,1823.97
						c0,0-11.818,21.941-37.695,21.64c-23.169-0.27-29.315-51.868-15.155-63.642c4.725-3.929,14.497-5.977,22.629-4.16
						c4.803,1.074,6.511,2.955,14.393,4.555c7.271,1.478,9.253,0.575,11.516,2.28c2.829,2.135,5.111,7.615,1.398,22.993
						c4.167-4.694,9.363-6.689,13.205-5.121c0.613,0.252,2.255,1.246,3.235,2.832
						C2713.077,1811.089,2708.078,1818.93,2696.01,1823.97z"/>
					
						<linearGradient id="SVGID_00000140715995508264607650000003271084940959129229_" gradientUnits="userSpaceOnUse" x1="-1603.9678" y1="1571.2014" x2="-1662.4543" y2="1422.6561" gradientTransform="matrix(0.9988 -0.0496 0.0496 0.9988 4236.2363 252.4768)">
						<stop  offset="0" style="stop-color:#311944"/>
						<stop  offset="1" style="stop-color:#6B3976"/>
					</linearGradient>
					<path style="fill:url(#SVGID_00000140715995508264607650000003271084940959129229_);" d="M2692.575,1781.491
						c-1.069,0.89,2.556,4.862,3.124,10.728c1.104,11.387-9.718,25.704-21.44,27.495c-6.931,1.058-9.07-3.039-20.653-3.641
						c-7.172-0.372-13.06,0.852-16.75,1.868c-2.951,12.71,1.121,25.008,9.797,30.352c9.341,5.753,20.645,1.357,25.372-0.482
						c3.161-1.23,13.294-5.149,18.179-14.894c5.089-10.155-0.739-15.801,5.348-22.811c3.07-3.536,7.26-5.219,11.069-11.95
						c1.034-1.828,1.704-3.433,2.108-4.51C2702.431,1787.652,2694.123,1780.202,2692.575,1781.491z"/>
					
						<linearGradient id="SVGID_00000032648606355906932920000001021983010473541294_" gradientUnits="userSpaceOnUse" x1="-1661.2084" y1="1481.6976" x2="-1658.1667" y2="1508.8135" gradientTransform="matrix(0.9988 -0.0496 0.0496 0.9988 4236.2363 252.4768)">
						<stop  offset="0" style="stop-color:#FFC444"/>
						<stop  offset="1" style="stop-color:#F36F56"/>
					</linearGradient>
					<path style="fill:url(#SVGID_00000032648606355906932920000001021983010473541294_);" d="M2645.484,1822.132
						c0,0,5.125,2.34,13.717,1.395c0.417-0.047,0.887,0.052,0.951,0.266c0.241,0.807-5.091,4.768-10.261,3.609
						c-3.671-0.826-6.667-4.098-6.227-4.995C2643.85,1822.028,2644.671,1822.032,2645.484,1822.132z"/>
				</g>
			</g>
			
				<linearGradient id="SVGID_00000018196757324583496790000003098641059979542167_" gradientUnits="userSpaceOnUse" x1="3131.4182" y1="2280.8149" x2="3146.9568" y2="2328.2412" gradientTransform="matrix(-1 0 0 1 6025.8203 0)">
				<stop  offset="0" style="stop-color:#FFC444"/>
				<stop  offset="0.9964" style="stop-color:#F36F56"/>
			</linearGradient>
			<path style="fill:url(#SVGID_00000018196757324583496790000003098641059979542167_);" d="M2929.619,2296.516l-23.231-1.297
				c0,0-25.452-21.299-37.038-19.97c-11.584,1.329-28.914,9.367-31.027,11.054c-2.113,1.686,6.34,11.132,14.793,10.213
				c8.453-0.919,27.316,3.642,30.69,11.089c3.373,7.446,18.014,11.944,20.501,7.576l31.228,6.198L2929.619,2296.516z"/>
			
				<linearGradient id="SVGID_00000018214674745755080870000017216453593630024105_" gradientUnits="userSpaceOnUse" x1="2913.5735" y1="2330.3313" x2="3248.3228" y2="1556.8563" gradientTransform="matrix(-1 0 0 1 6025.8203 0)">
				<stop  offset="0" style="stop-color:#FF9085"/>
				<stop  offset="1" style="stop-color:#FB6FBB"/>
			</linearGradient>
			<path style="fill:url(#SVGID_00000018214674745755080870000017216453593630024105_);" d="M2922.591,2288.389
				c-1.626,19.058,2.525,32.002,9.452,40.878c30.704,39.343,135.054,23.255,197.073-29.442
				c45.907-39.007,70.215-99.577,69.317-153.85c-1.752-105.9-99.896-209.669-245.884-245.52
				c-21.61,64.599-43.221,129.197-64.831,193.797c90.004,1.373,144.686,69.222,136.577,117.658
				C3018.254,2247.993,2976.171,2280.45,2922.591,2288.389z"/>
			
				<linearGradient id="SVGID_00000170978596869001914060000014994085742689974697_" gradientUnits="userSpaceOnUse" x1="3231.6165" y1="2467.9763" x2="3566.3674" y2="1694.4977" gradientTransform="matrix(-1 0 0 1 6025.8203 0)">
				<stop  offset="0" style="stop-color:#FF9085"/>
				<stop  offset="1" style="stop-color:#FB6FBB"/>
			</linearGradient>
			<path style="opacity:0.3;fill:url(#SVGID_00000170978596869001914060000014994085742689974697_);" d="M2569.509,2475.653
				c47.347-20.203,47.073-62.013,91.295-79.461c63.103-24.9,132.821,32.946,143.706,16.906
				c11.328-16.689-71.94-67.87-60.864-118.345c8.803-40.114,66.928-33.005,98.058-87.914c29.532-52.088,0.901-100.245,27.05-118.347
				c9.378-6.492,25.921-9.054,57.285,4.749c-21.87,68.303-37.552,128.537-38.688,203.202c-0.303,19.893-0.101,75.467-3.382,157.231
				c-2.126,53.003-4.369,83.404-21.978,91.296c-18.363,8.228-33.259-17.061-77.771-32.123c-32.688-11.062-65.63-8.088-130.18-1.691
				c-96.264,9.541-103.088,23.152-121.952,11.877c-12.285-7.343-18.125-18.384-22.035-39.593
				C2529.353,2485.521,2549.826,2484.05,2569.509,2475.653z"/>
		</g>
		<g>
			
				<linearGradient id="SVGID_00000075141578999168941090000011763170991948758156_" gradientUnits="userSpaceOnUse" x1="-287.8743" y1="2176.6052" x2="-99.1555" y2="2176.6052" gradientTransform="matrix(-1 0 0 1 1470.2181 0)">
				<stop  offset="0.0036" style="stop-color:#F36F56"/>
				<stop  offset="1" style="stop-color:#FFC444"/>
			</linearGradient>
			<path style="fill:url(#SVGID_00000075141578999168941090000011763170991948758156_);" d="M1600.902,1980.759
				c23.761-6.94,55.517,36.69,81.917,72.96c39.495,54.262,85.64,117.66,73.208,193.787c-12.23,74.897-76.441,133.228-94.74,124.885
				c-15.651-7.136,14.441-57.51-8.613-124.885c-18.602-54.365-49.424-54.385-70.093-107.685
				C1556.929,2073.671,1571.671,1989.297,1600.902,1980.759z"/>
			
				<linearGradient id="SVGID_00000091696659918363713320000008475627820569803929_" gradientUnits="userSpaceOnUse" x1="388.7232" y1="2530.9397" x2="754.6882" y2="2530.9397" gradientTransform="matrix(-1 0 0 1 2471.8074 0)">
				<stop  offset="0" style="stop-color:#444B8C"/>
				<stop  offset="0.9964" style="stop-color:#26264F"/>
			</linearGradient>
			<path style="fill:url(#SVGID_00000091696659918363713320000008475627820569803929_);" d="M1612.66,2325.744
				c122.38,29.711,202.991,77.405,250.069,111.141c25.514,18.285,37.3,29.688,43.662,46.309
				c36.252,94.723-150,237.943-169.849,252.941c-8.67-20.215-17.34-40.431-26.009-60.647
				c19.246-105.635,51.287-138.775,78.1-148.631c7.5-2.757,20.091-5.713,19.847-9.262c-0.578-8.392-71.322,3.567-138.928-21.169
				c-67.413-24.667-135.143-87.079-123.049-128.343C1548.712,2360.552,1557.959,2338.779,1612.66,2325.744z"/>
			
				<linearGradient id="SVGID_00000096047834938043409510000017509259691310066061_" gradientUnits="userSpaceOnUse" x1="2721.9568" y1="2649.1587" x2="2737.7751" y2="2933.8943" gradientTransform="matrix(0.9565 0.2918 -0.2918 0.9565 -61.8632 -392.2555)">
				<stop  offset="0" style="stop-color:#FF9085"/>
				<stop  offset="1" style="stop-color:#FB6FBB"/>
			</linearGradient>
			<path style="fill:url(#SVGID_00000096047834938043409510000017509259691310066061_);" d="M1731.328,3018.099
				c0,0-11.392,4.058-11.434,13.068c-0.042,9.008,11.539,48.694,24.12,62.795c12.58,14.101,13.706-6.936,12.927-20.488
				c-0.777-13.552-4.076-43.887-7.186-49.753C1746.645,3017.857,1731.328,3018.099,1731.328,3018.099z"/>
			
				<linearGradient id="SVGID_00000039820972554899576110000002230229659397946004_" gradientUnits="userSpaceOnUse" x1="560.7501" y1="2544.709" x2="926.7147" y2="2544.709" gradientTransform="matrix(-1 0 0 1 2471.8074 0)">
				<stop  offset="0" style="stop-color:#444B8C"/>
				<stop  offset="0.9964" style="stop-color:#26264F"/>
			</linearGradient>
			<path style="opacity:0.3;fill:url(#SVGID_00000039820972554899576110000002230229659397946004_);" d="M1767.906,2464.23
				c22.236-0.436,74.335-4.585,88.207,21.169c11.573,21.488-8.701,54.061-21.171,74.094c-33.897,54.466-66.797,60.037-89.972,93.5
				c-8.969,12.953-17.096,31.045-19.683,56.894c-4.919-11.467-9.836-22.934-14.753-34.401
				c19.246-105.634,51.287-138.776,78.1-148.63c7.5-2.757,20.091-5.713,19.847-9.262c-0.578-8.393-71.322,3.567-138.928-21.169
				c-61.452-22.486-122.96-76.291-124.233-116.896C1642.629,2449.325,1715.868,2465.25,1767.906,2464.23z"/>
			
				<linearGradient id="SVGID_00000023274304017611659920000001403759830055502242_" gradientUnits="userSpaceOnUse" x1="4660.2344" y1="3022.7136" x2="4684.0317" y2="3022.7136" gradientTransform="matrix(-1 0 0 1 6408.7778 0)">
				<stop  offset="0" style="stop-color:#311944"/>
				<stop  offset="1" style="stop-color:#A03976"/>
			</linearGradient>
			<path style="fill:url(#SVGID_00000023274304017611659920000001403759830055502242_);" d="M1724.746,2979.818
				c0.671,13.884,1.85,25.491,2.912,34.111c2.35,19.07,4.512,26.616,7.472,33.489c2.582,5.988,9.036,19.053,12.117,18.147
				c3.131-0.919-0.09-15.393-2.529-55.646c-0.355-5.843-1.43-24.443-1.43-24.443l0,0L1724.746,2979.818z"/>
			
				<linearGradient id="SVGID_00000183222704859237474260000015381516460951438498_" gradientUnits="userSpaceOnUse" x1="584.1355" y1="2303.7158" x2="912.2683" y2="2702.4146" gradientTransform="matrix(-1 0 0 1 2471.8074 0)">
				<stop  offset="0" style="stop-color:#444B8C"/>
				<stop  offset="0.9964" style="stop-color:#26264F"/>
			</linearGradient>
			<path style="fill:url(#SVGID_00000183222704859237474260000015381516460951438498_);" d="M1542.094,2333.683
				c70.511,42.512,116.284,90.849,142.896,123.49c31.416,38.533,79.202,97.147,96.503,184.546
				c9.223,46.586,4.684,88.375-4.768,170.048c-9.389,81.119-22.845,147.162-33.373,192.266c-5.422,2.176-10.843,4.354-16.265,6.529
				c-14.524-26.683-33.522-68.923-40.333-122.937c-11.142-88.372,21.917-116.454,6.049-179.125
				c-13.745-54.291-53.575-87.58-133.231-154.158c-65.448-54.701-125.795-87.155-148.195-155.384
				c-3.805-11.586-7.038-25.8-0.837-38.814C1423.903,2332.099,1475.037,2322.313,1542.094,2333.683z"/>
			
				<linearGradient id="SVGID_00000162318198506650345480000006924784690916763579_" gradientUnits="userSpaceOnUse" x1="1503.7864" y1="1806.5931" x2="1069.8025" y2="2170.0112" gradientTransform="matrix(-0.9987 -0.0509 -0.0509 0.9987 2565.9993 27.2223)">
				<stop  offset="0" style="stop-color:#444B8C"/>
				<stop  offset="0.9964" style="stop-color:#26264F"/>
			</linearGradient>
			<path style="fill:url(#SVGID_00000162318198506650345480000006924784690916763579_);" d="M1485.808,1985.814
				c18.303-3.936,48.401-3.154,77.095-25.751c8.639-6.802,39.242-30.902,35.525-65.382c-3.271-30.355-32.041-46.669-35.572-48.612
				c-20.368-11.21-40.672-8.718-63.191-5.64c-29.201,3.993-38.9,11.97-59.191,17.44c-50.198,13.531-67.174-14.712-117.715-12.329
				c-64.597,3.045-70.185,50.752-124.533,51.943c-61.013,1.336-72.706-58.378-132.946-68.494
				c-83.614-14.043-210.125,75.97-207.577,179.735c1.471,59.931,46.098,128.616,103.099,149.236
				c33.225,12.019,69.077,8.202,79.31,29.807c7.283,15.375-9.09,27.222-7.542,54.013c1.99,34.539,31.727,58.776,36.529,62.689
				c44.575,36.333,144.513,17.98,212.758-33.431C1404.921,2178.331,1386.296,2007.225,1485.808,1985.814z"/>
			
				<linearGradient id="SVGID_00000111875191319634207100000014109420280247582593_" gradientUnits="userSpaceOnUse" x1="-1252.7122" y1="2315.5347" x2="-900.2697" y2="1998.6593" gradientTransform="matrix(1 0 0 1 2574.7561 0)">
				<stop  offset="0.0036" style="stop-color:#F36F56"/>
				<stop  offset="1" style="stop-color:#FFC444"/>
			</linearGradient>
			<path style="fill:url(#SVGID_00000111875191319634207100000014109420280247582593_);" d="M1344.448,1973.495
				c41.45-5.107,89.259-8.994,142.385-9.716c112.259-1.524,128.33,12.709,132.442,23.248c7.666,19.643-5.466,29.488,1.991,63.739
				c4.459,20.479,0.244,29.812,8.864,51.816c8.401,21.444,1.811,32.974-5.617,83.257c-9.498,64.299-13.88,96.978,4.113,122.898
				c12.502,18.01,26.489,19.535,25.156,28.091c-2.84,18.227-65.86,8.175-145.649,43.166c-23.098,10.128-44.358,22.611-62.187,33.078
				c-41.747,24.508-49.47,33.881-68.802,44.985c-61.138,35.119-152.978,38.503-201.113-3.969
				c-17.945-15.834-31.024-39.111-25.139-47.632c8.014-11.6,43.853,14.75,76.74-1.323c21.787-10.649,17.648-27.875,42.836-48.172
				c30.313-24.428,51.389-11.628,72.022-27.522c32.186-24.794,17.544-84.158,8.509-183.688
				C1347.26,2104.544,1343.508,2045.709,1344.448,1973.495z"/>
			
				<linearGradient id="SVGID_00000096040979092584976060000007567099449017950897_" gradientUnits="userSpaceOnUse" x1="4861.4355" y1="1951.7961" x2="4985.6987" y2="1951.7961" gradientTransform="matrix(-1 0 0 1 6408.7778 0)">
				<stop  offset="0" style="stop-color:#311944"/>
				<stop  offset="1" style="stop-color:#A03976"/>
			</linearGradient>
			<path style="fill:url(#SVGID_00000096040979092584976060000007567099449017950897_);" d="M1465.935,1950.372
				c-15.311,9.498-40.06,21.912-42.786,25.283c-2.726,3.365,74.979,16.671,123.329-7.728c0,0,7.495-4.164-21.652-9.993
				c-6.211-1.243-4.996-13.324-4.164-25.816l-5.829-10.826C1514.832,1921.291,1481.243,1940.868,1465.935,1950.372z"/>
			
				<linearGradient id="SVGID_00000029042645454648180180000001388229148254497158_" gradientUnits="userSpaceOnUse" x1="4877.1694" y1="2273.8721" x2="4874.4893" y2="2028.6353" gradientTransform="matrix(-1 0 0 1 6408.7778 0)">
				<stop  offset="0" style="stop-color:#311944"/>
				<stop  offset="1" style="stop-color:#A03976"/>
			</linearGradient>
			<path style="fill:url(#SVGID_00000029042645454648180180000001388229148254497158_);" d="M1504.561,1913.935
				c0,0-6.006,25.479,16.433,38.071c20.092,11.278,54.083-34.948,47.734-52.127c-2.117-5.73-9.682-13.095-17.59-15.57
				c-5.562-1.742-26.604-1.07-35.617,16.646c-2.361-5.18-6.588-7.895-9.428-7.044c-3.604,1.077-4.133,7.637-4.255,9.122
				C1501.42,1908.186,1503.498,1912.182,1504.561,1913.935z"/>
			
				<linearGradient id="SVGID_00000157291812751410621480000003904563211102773664_" gradientUnits="userSpaceOnUse" x1="-1241.1337" y1="2328.4124" x2="-888.6898" y2="2011.5358" gradientTransform="matrix(1 0 0 1 2574.7561 0)">
				<stop  offset="0.0036" style="stop-color:#F36F56"/>
				<stop  offset="1" style="stop-color:#FFC444"/>
			</linearGradient>
			<path style="opacity:0.2;fill:url(#SVGID_00000157291812751410621480000003904563211102773664_);" d="M1539.353,2322.372
				c-23.117,9.582-26.238,30.289-58.202,42.034c-30.491,11.204-40.723-2.835-71.135,6.467
				c-45.678,13.973-63.144,58.048-70.057,53.89c-6.335-3.809-0.26-45.973,29.101-73.291c33.719-31.373,70.036-17.006,91.613-49.579
				c8.395-12.674,14.868-32.92,7.545-48.502c-9.924-21.115-35.844-13.792-49.579-31.257
				c-24.678-31.376,33.072-87.967,17.245-135.804c-6.316-19.091-26.428-43.019-91.288-59.036c0.88,47.95,3.643,88.021,6.405,118.451
				c9.035,99.53,23.677,158.895-8.509,183.688c-20.633,15.895-41.708,3.095-72.022,27.523
				c-25.189,20.297-21.049,37.523-42.836,48.172c-32.887,16.073-68.726-10.277-76.74,1.323c-5.885,8.521,7.194,31.797,25.139,47.632
				c48.135,42.471,139.975,39.088,201.113,3.97c19.332-11.104,27.055-20.478,68.802-44.986
				c17.829-10.468,39.089-22.95,62.187-33.079c55.994-24.556,103.696-26.932,128.169-32.463
				C1587.714,2315.128,1558.116,2314.595,1539.353,2322.372z"/>
			<g>
				
					<linearGradient id="SVGID_00000086663293075656424710000000929172113361837969_" gradientUnits="userSpaceOnUse" x1="-1124.989" y1="2378.7151" x2="-804.4289" y2="2378.7151" gradientTransform="matrix(1 0 0 1 2574.7561 0)">
					<stop  offset="0" style="stop-color:#FF9085"/>
					<stop  offset="1" style="stop-color:#FB6FBB"/>
				</linearGradient>
				<path style="fill:url(#SVGID_00000086663293075656424710000000929172113361837969_);" d="M1762.476,2354.891l-293.282,14.271
					c-4.037,0.198-7.719,2.36-9.854,5.79l-8.116,13.025c-4.039,6.483,0.814,14.846,8.449,14.555l310.654-11.834L1762.476,2354.891z"
					/>
				
					<linearGradient id="SVGID_00000012464318161908371130000013145105048860326041_" gradientUnits="userSpaceOnUse" x1="-972.5649" y1="2294.5266" x2="-532.5714" y2="2294.5266" gradientTransform="matrix(1 0 0 1 2574.7561 0)">
					<stop  offset="0" style="stop-color:#FF9085"/>
					<stop  offset="1" style="stop-color:#FB6FBB"/>
				</linearGradient>
				<path style="fill:url(#SVGID_00000012464318161908371130000013145105048860326041_);" d="M2031.711,2192.865l-302.992,5.871
					c-8.966,0.174-17.175,5.057-21.605,12.852l-104.923,184.601l319.997-12.749c8.783-0.35,16.798-5.105,21.312-12.648
					l97.211-162.404C2044.85,2201.476,2039.768,2192.709,2031.711,2192.865z"/>
				
					<linearGradient id="SVGID_00000099660795019936011740000013669510065137203347_" gradientUnits="userSpaceOnUse" x1="2375.5115" y1="2177.7976" x2="2585.6799" y2="2386.2849" gradientTransform="matrix(-1 0 0 1 4315.0347 0)">
					<stop  offset="0" style="stop-color:#FF9085"/>
					<stop  offset="1" style="stop-color:#FB6FBB"/>
				</linearGradient>
				<path style="opacity:0.3;fill:url(#SVGID_00000099660795019936011740000013669510065137203347_);" d="M1707.113,2211.59
					c4.431-7.797,12.641-12.68,21.607-12.854l6.64-0.128c0.99,9.781,3.991,18.728,9.976,25.951
					c18.683,22.551,49.723,8.642,72.859,32.508c25.414,26.216,1.936,57.424,24.658,81.824c23.918,25.681,62.592,4.771,107.05,21.206
					l-6.402,10.694c-4.514,7.544-12.529,12.299-21.312,12.649l-319.997,12.749L1707.113,2211.59z"/>
			</g>
			<g>
				
					<linearGradient id="SVGID_00000043452962808800160540000011738799167602143625_" gradientUnits="userSpaceOnUse" x1="-1106.6661" y1="2313.1665" x2="-1375.8143" y2="2048.325" gradientTransform="matrix(1 0 0 1 2574.7561 0)">
					<stop  offset="0.0036" style="stop-color:#F36F56"/>
					<stop  offset="1" style="stop-color:#FFC444"/>
				</linearGradient>
				<path style="fill:url(#SVGID_00000043452962808800160540000011738799167602143625_);" d="M1517.237,2355.046
					c3.306-8.728,6.61-17.452,9.915-26.182c-36.525-10.014-87.041-24.81-138.855-43.323c-12.803-4.575-17.489-10.489-20.913-15.031
					c-26.565-35.231,41.039-97.385,39.828-178.033c-0.839-55.904-34.732-119.853-64.595-120.578
					c-60.705-1.475-194.551,256.105-81.821,366.041C1316.747,2392.505,1421.281,2398.837,1517.237,2355.046z"/>
			</g>
			
				<linearGradient id="SVGID_00000180344138885144038540000010604755907679124415_" gradientUnits="userSpaceOnUse" x1="4801.7456" y1="2344.2798" x2="4893.7417" y2="2344.2798" gradientTransform="matrix(-1 0 0 1 6408.7778 0)">
				<stop  offset="0" style="stop-color:#311944"/>
				<stop  offset="1" style="stop-color:#A03976"/>
			</linearGradient>
			<path style="fill:url(#SVGID_00000180344138885144038540000010604755907679124415_);" d="M1527.152,2328.864
				c22.931-12.18,50.378,0.305,52.146,1.142c5.039,2.378,12.372,6.615,19.78,14.183c0.838,1.143,10.785,14.925,7.161,19.342
				c-2.904,3.539-14.152,0.605-27.671-7.802c-5.667-0.795-14.102-1.525-24.208-0.594c-18.559,1.712-27.061,7.575-33.798,2.514
				c-4.933-3.704-6.615-11.538-4.839-17.362C1517.629,2334.031,1523.271,2330.927,1527.152,2328.864z"/>
		</g>
		<g>
			
				<linearGradient id="SVGID_00000176039364273488503100000000173235346392879526_" gradientUnits="userSpaceOnUse" x1="2643.0598" y1="594.2531" x2="2420.0112" y2="1221.5779">
				<stop  offset="0" style="stop-color:#311944"/>
				<stop  offset="1" style="stop-color:#A03976"/>
			</linearGradient>
			<path style="fill:url(#SVGID_00000176039364273488503100000000173235346392879526_);" d="M2595.404,1196.437
				c14.696,7.461,33.159,0.61,41.238-15.302c8.079-15.913,2.715-34.861-11.98-42.323c-0.761-0.387-1.538-0.712-2.318-1.022
				c2.73-8.805,4.789-17.679,6.17-26.556c0.842-0.003,1.687-0.016,2.546-0.093c16.766-1.495,30.073-16.901,29.723-34.413
				c-0.351-17.512-14.228-30.496-30.995-29.002c-0.876,0.079-1.737,0.217-2.593,0.369c-1.751-8.678-4.151-17.156-7.178-25.36
				c0.771-0.451,1.539-0.918,2.288-1.443c14.344-10.049,18.931-29.885,10.243-44.303c-8.688-14.418-27.359-17.959-41.703-7.91
				c-0.735,0.515-1.426,1.071-2.11,1.636c-5.666-6.263-11.88-12.068-18.603-17.365c0.473-0.775,0.935-1.56,1.354-2.384
				c8.079-15.913,18.637-33.295,3.826-40.525c-34.262-16.726-48.965-2.408-57.045,13.505c-0.418,0.824-0.779,1.661-1.126,2.5
				c-8.244-2.302-16.597-3.893-24.997-4.772c0.052-0.885,0.093-1.771,0.076-2.669c-0.351-17.511,4.845-26.988-11.985-27.315
				c-36.701-0.714-49.083,15.216-48.732,32.727c0.019,0.915,0.095,1.81,0.186,2.699c-8.41,2.397-16.67,5.462-24.71,9.17
				c-0.383-0.781-0.779-1.557-1.233-2.312c-8.687-14.418-27.358-17.959-41.704-7.908c-14.345,10.05-18.931,29.885-10.243,44.303
				c0.445,0.739,0.933,1.429,1.427,2.111c-6.353,6.353-12.302,13.252-17.798,20.652c-0.711-0.446-1.432-0.882-2.194-1.268
				c-14.696-7.461-33.159-0.611-41.237,15.302c-8.08,15.913-2.716,34.861,11.98,42.323c0.761,0.387,1.539,0.712,2.318,1.022
				c-2.73,8.805-4.789,17.679-6.17,26.556c-0.842,0.003-1.688,0.017-2.545,0.093c-16.767,1.495-30.074,16.902-29.724,34.414
				c0.351,17.512,14.228,30.495,30.995,29.001c0.875-0.078,1.737-0.216,2.592-0.368c1.751,8.678,4.151,17.155,7.178,25.36
				c-0.771,0.451-1.539,0.918-2.288,1.443c-14.344,10.05-18.93,29.885-10.243,44.303c8.687,14.418,37.448,21.117,51.792,11.067
				c0.735-0.515-8.663-4.229-7.979-4.793c5.666,6.263,11.88,12.068,18.603,17.365c-0.472,0.775-0.935,1.56-1.354,2.385
				c-8.079,15.913-2.715,34.861,11.98,42.322c14.696,7.461,33.159,0.611,41.238-15.302c0.418-0.824,0.779-1.661,1.126-2.5
				c8.244,2.302,16.597,3.894,24.997,4.772c-0.052,0.885-0.093,1.771-0.075,2.669c0.351,17.511,14.228,30.496,30.994,29.001
				c16.767-1.495,30.074-16.902,29.723-34.413c-0.019-0.915-0.095-1.81-0.186-2.699c8.411-2.397,16.671-5.463,24.71-9.17
				c0.382,0.781,0.779,1.557,1.233,2.311c8.687,14.418,27.359,17.96,41.703,7.909c14.345-10.05,18.931-29.885,10.244-44.304
				c-0.445-0.738-0.933-1.428-1.428-2.11c6.353-6.353,12.302-13.252,17.799-20.652
				C2593.922,1195.614,2594.643,1196.05,2595.404,1196.437z M2412.206,1198.761c-53.358-27.091-72.833-95.888-43.499-153.663
				c29.333-57.776,96.368-82.65,149.725-55.56c53.358,27.091,72.833,95.888,43.5,153.664
				C2532.597,1200.978,2465.563,1225.852,2412.206,1198.761z"/>
			
				<linearGradient id="SVGID_00000080205618038907107250000015980624271480014009_" gradientUnits="userSpaceOnUse" x1="2742.5779" y1="629.6374" x2="2519.5303" y2="1256.9602">
				<stop  offset="0" style="stop-color:#311944"/>
				<stop  offset="1" style="stop-color:#A03976"/>
			</linearGradient>
			<path style="fill:url(#SVGID_00000080205618038907107250000015980624271480014009_);" d="M2631.06,1111.14
				c16.766-1.495,30.073-16.902,29.723-34.414c-0.351-17.511-14.228-30.496-30.995-29.001c-0.876,0.078-1.737,0.217-2.593,0.369
				c-1.75-8.679-4.151-17.155-7.178-25.36c0.771-0.451,1.539-0.918,2.288-1.443c14.344-10.049,32.091-34.333,21.971-47.783
				c-19.208-25.529-39.086-14.478-53.431-4.429c-0.735,0.515-1.426,1.071-2.109,1.635c-5.666-6.263-11.88-12.067-18.604-17.365
				c0.473-0.775,0.935-1.56,1.354-2.384c4.397-8.661,4.785-18.209,1.881-26.326c-13.855,24.386-27.524,48.874-40.947,73.496
				c42.567,31.192,56.119,92.662,29.511,145.067c-22.547,44.409-67.367,69.345-111.129,66.22
				c-1.952,5.063-3.869,10.153-5.959,15.167c-5.673,13.607-12.117,26.933-18.57,40.242c4.058,0.765,8.134,1.367,12.222,1.795
				c-0.052,0.885-0.093,1.772-0.075,2.669c0.351,17.511,10.983,32.39,41.37,30.778c16.809-0.891,19.698-18.679,19.347-36.19
				c-0.019-0.915-0.095-1.81-0.186-2.699c8.411-2.397,16.671-5.463,24.71-9.17c0.382,0.781,0.779,1.557,1.233,2.311
				c8.688,14.419,38.825,20.545,53.169,10.494c14.345-10.05,7.465-32.47-1.222-46.888c-0.445-0.739-0.933-1.429-1.428-2.111
				c6.353-6.353,12.302-13.251,17.799-20.651c0.711,0.446,1.432,0.882,2.193,1.268c14.696,7.462,33.159,0.61,41.239-15.302
				c8.079-15.912,2.715-34.861-11.981-42.322c-0.761-0.387-1.539-0.711-2.318-1.022c2.73-8.805,4.789-17.679,6.17-26.556
				C2629.355,1111.231,2630.2,1111.217,2631.06,1111.14z"/>
			
				<linearGradient id="SVGID_00000114760707666669698060000018181319261570692008_" gradientUnits="userSpaceOnUse" x1="1982.365" y1="1863.2697" x2="2375.0247" y2="1259.1788">
				<stop  offset="0.0036" style="stop-color:#F36F56"/>
				<stop  offset="1" style="stop-color:#FFC444"/>
			</linearGradient>
			<path style="fill:url(#SVGID_00000114760707666669698060000018181319261570692008_);" d="M2611.21,1198.234
				c14.696,7.462,33.159,0.61,41.238-15.302c8.079-15.912,2.715-34.861-11.981-42.323c-0.761-0.386-1.538-0.711-2.317-1.022
				c2.73-8.805,4.789-17.679,6.169-26.557c0.842-0.002,1.687-0.016,2.546-0.093c16.767-1.495,30.074-16.901,29.723-34.413
				c-0.351-17.512-14.228-30.496-30.995-29.002c-0.876,0.078-1.737,0.217-2.593,0.369c-1.751-8.678-4.151-17.156-7.178-25.36
				c0.771-0.451,1.539-0.918,2.288-1.443c14.344-10.049,18.931-29.885,10.243-44.304c-8.687-14.418-27.359-17.959-41.703-7.909
				c-0.735,0.515-1.427,1.072-2.11,1.636c-5.666-6.263-11.88-12.067-18.603-17.365c0.472-0.775,0.935-1.56,1.354-2.384
				c8.079-15.913,2.715-34.861-11.981-42.323c-14.696-7.462-33.159-0.61-41.238,15.302c-0.418,0.824-0.78,1.661-1.126,2.5
				c-8.244-2.302-16.597-3.893-24.997-4.772c0.052-0.885,0.093-1.771,0.075-2.669c-0.352-17.511-14.228-30.495-30.995-29.001
				c-16.766,1.494-30.073,16.902-29.722,34.413c0.018,0.915,0.095,1.81,0.185,2.699c-8.41,2.398-16.67,5.463-24.71,9.17
				c-0.382-0.781-0.779-1.557-1.232-2.312c-8.687-14.418-27.359-17.959-41.704-7.909c-14.345,10.051-18.93,29.886-10.243,44.304
				c0.445,0.738,0.933,1.429,1.428,2.111c-6.353,6.353-12.302,13.251-17.799,20.652c-0.711-0.446-1.432-0.882-2.193-1.268
				c-14.696-7.462-33.158-0.61-41.238,15.302c-8.079,15.912-2.715,34.861,11.981,42.322c0.761,0.387,1.539,0.712,2.318,1.022
				c-2.73,8.805-4.789,17.679-6.169,26.556c-0.842,0.003-1.688,0.017-2.546,0.093c-16.767,1.495-30.074,16.902-29.723,34.414
				c0.351,17.512,14.228,30.495,30.994,29.001c0.876-0.078,1.737-0.216,2.593-0.368c1.751,8.678,4.151,17.155,7.178,25.36
				c-0.771,0.451-1.539,0.917-2.288,1.443c-14.345,10.05-18.931,29.885-10.243,44.303c8.688,14.418,27.358,17.959,41.703,7.91
				c0.735-0.516,1.427-1.072,2.11-1.636c5.666,6.263,11.88,12.068,18.603,17.365c-0.472,0.775-0.935,1.56-1.354,2.384
				c-8.08,15.913-2.716,34.861,11.98,42.323c14.696,7.461,33.159,0.61,41.238-15.302c0.418-0.824,0.779-1.661,1.126-2.5
				c8.244,2.302,16.597,3.893,24.997,4.772c-0.052,0.885-0.093,1.771-0.076,2.669c0.352,17.511,14.228,30.496,30.995,29.001
				c16.766-1.495,30.074-16.902,29.722-34.413c-0.018-0.915-0.094-1.81-0.186-2.699c8.411-2.397,16.671-5.462,24.71-9.17
				c0.382,0.781,0.779,1.557,1.233,2.31c8.687,14.418,27.358,17.96,41.703,7.91c14.345-10.05,18.931-29.885,10.244-44.304
				c-0.445-0.738-0.933-1.429-1.428-2.11c6.352-6.353,12.302-13.251,17.799-20.652
				C2609.728,1197.412,2610.449,1197.847,2611.21,1198.234z M2428.012,1200.558c-53.357-27.091-72.833-95.888-43.499-153.663
				c29.334-57.775,96.368-82.65,149.726-55.559c53.358,27.091,72.833,95.888,43.5,153.663
				C2548.403,1202.775,2481.37,1227.649,2428.012,1200.558z"/>
		</g>
		<g>
			<g>
				
					<linearGradient id="SVGID_00000152982371501000135090000006669265608080020382_" gradientUnits="userSpaceOnUse" x1="1665.0162" y1="3693.9495" x2="931.0457" y2="2719.895">
					<stop  offset="0.0036" style="stop-color:#F36F56"/>
					<stop  offset="1" style="stop-color:#FFC444"/>
				</linearGradient>
				<path style="fill:url(#SVGID_00000152982371501000135090000006669265608080020382_);" d="M1116.719,3133.037
					c33.063-2.623,75.362-11.811,115.961-38.354c43.927-28.717,101.138-87.735,86.205-124.924
					c-5.575-13.884-21.627-25.772-35.737-24.639c-20.845,1.674-23.272,30.628-59.47,62.122c-6.689,5.821-41.276,35.913-58.47,25.773
					c-8.548-5.041-11.076-19.01-9.682-29.631c4.076-31.053,41.991-35.822,78.439-69.438c36.954-34.083,67.758-93.537,50.15-133.733
					c-10.119-23.099-36.884-41.342-54.478-36.214c-7.519,2.191-12.286,8.337-35.115,57.656
					c-18.737,40.479-22.905,52.28-34.985,56.118c-12.434,3.951-31.767-1.007-39.115-13.257
					c-19.136-31.906,63.572-79.013,71.083-168.303c3.366-40.013-7.459-99.318-43.695-112.03
					c-24.496-8.594-59.394,4.531-72.01,27.004c-11.373,20.259,2.443,35.501-6.233,81.011c-2.633,13.81-8.051,42.229-19.485,43.72
					c-13.423,1.75-28.442-34.486-31.913-43.311c-26.133-66.439,3.833-100.604-20.808-132.856
					c-19.215-25.15-61.024-35.251-94.145-22.548c-28.982,11.116-52.168,40.023-53.717,69.98
					c-1.576,30.48,24.06,60.822,75.331,121.507c24.314,28.778,43.659,48.221,42.559,76.825
					c-0.536,13.944-6.065,33.557-16.053,35.349c-22.043,3.954-32.893-84.809-85.136-98.517c-26.741-7.017-59.97,6.774-74.572,30.878
					c-17.891,29.533-5.905,71.393,16.572,93.404c29.326,28.719,59.4,6.894,114.579,37.741
					c24.479,13.685,62.948,42.795,57.315,66.867c-2.452,10.481-13.438,20.745-25.495,22.114
					c-27.025,3.067-35.951-41.222-79.399-60.691c-31.303-14.027-74.587-12.51-84.869,5.143
					c-14.515,24.922,37.038,81.504,64.447,106.505C887.915,3074.533,966.058,3131.847,1116.719,3133.037z"/>
				<g style="opacity:0.5;">
					<path style="fill:#FFFFFF;" d="M1103.005,3118.906c4.38-74.259-44.758-225.423-80.511-296.865
						c-34.884-69.705-68.273-180.037-68.605-181.144l-4.352,1.309c0.335,1.111,33.835,111.811,68.894,181.867
						c35.531,70.999,84.377,221.046,80.041,294.567L1103.005,3118.906z"/>
				</g>
			</g>
			
				<linearGradient id="SVGID_00000132062989295718452480000010033125206668227976_" gradientUnits="userSpaceOnUse" x1="882.2021" y1="4074.1384" x2="1134.2772" y2="2906.3604">
				<stop  offset="0" style="stop-color:#311944"/>
				<stop  offset="1" style="stop-color:#A03976"/>
			</linearGradient>
			<path style="fill:url(#SVGID_00000132062989295718452480000010033125206668227976_);" d="M1194.65,3142.696
				c24.896-34.565,61.416-96.93,67.965-180.367c2.698-34.381,7.969-101.531-33.111-159.456
				c-20.475-28.87-63.896-71.568-93.234-59.251c-18.877,7.925-30.597,38.071-25.269,60.994
				c5.372,23.114,24.907,25.255,46.181,64.479c7.872,14.514,16.865,31.552,9.956,41.177c-5.77,8.039-21.622,9.501-33.507,4.68
				c-24.551-9.958-16.88-40.525-43.421-62.449c-18.873-15.59-50.334-22.918-63.911-10.149c-11.788,11.087-9.735,36.988,0.682,54.252
				c16.68,27.646,46.589,19.536,66.087,49.76c8.651,13.409,14.8,33.662,7.229,41.669c-8.627,9.124-34.015,1.234-50.286-8.853
				c-21.483-13.317-22.276-27.487-36.424-29.263c-15.781-1.981-35.51,13.047-38.596,29.674
				c-4.321,23.286,24.248,48.402,46.871,59.313c28.962,13.969,50.482,5.77,64.627,24.855c5.192,7.004,9.947,18.437,5.69,25.375
				c-6.074,9.898-28.026,6.63-42.601,4.46c-35.473-5.28-45.24-18.144-57.95-11.894c-12.869,6.328-19.507,27.702-13.942,42.696
				c3.093,8.333,12.384,21.24,58.426,29.321C1068.339,3159.376,1122.482,3163.356,1194.65,3142.696z"/>
		</g>
	</g>
</g>
</svg>
