<svg xmlns="http://www.w3.org/2000/svg" viewBox="0 0 500 500"><g id="freepik--background-simple--inject-21"><path d="M334.58,119.45s-52.13-29.16-111.94-7-97.93,79.8-130,125.71-27.19,99,10.43,129.24,71.72.9,130.33,9.16,72.88,19.26,126.89-5.45,76-101,47.66-165S334.58,119.45,334.58,119.45Z" style="fill:#C6B0DA"></path><path d="M334.58,119.45s-52.13-29.16-111.94-7-97.93,79.8-130,125.71-27.19,99,10.43,129.24,71.72.9,130.33,9.16,72.88,19.26,126.89-5.45,76-101,47.66-165S334.58,119.45,334.58,119.45Z" style="fill:#fff;opacity:0.8"></path></g></svg>
